Coordinates
version=1
nRows=20
nColumns=38
inDegrees=no

Units are S.I. units (second, meters, Newtons, ...)
If the header above contains a line with 'inDegrees', this indicates whether rotational values are in degrees (yes) or radians (no).

endheader
time	pelvis_tilt	pelvis_list	pelvis_rotation	pelvis_tx	pelvis_ty	pelvis_tz	hip_flexion_r	hip_adduction_r	hip_rotation_r	knee_angle_r	ankle_angle_r	subtalar_angle_r	mtp_angle_r	hip_flexion_l	hip_adduction_l	hip_rotation_l	knee_angle_l	ankle_angle_l	subtalar_angle_l	mtp_angle_l	lumbar_extension	lumbar_bending	lumbar_rotation	arm_flex_r	arm_add_r	arm_rot_r	elbow_flex_r	pro_sup_r	wrist_flex_r	wrist_dev_r	arm_flex_l	arm_add_l	arm_rot_l	elbow_flex_l	pro_sup_l	wrist_flex_l	wrist_dev_l
0	-3.02044	1.50667	-1.82367	0.469414	-0.381667	0.952089	0.519907	-0.00421667	0.122558	1.38447	-0.137305	0	0	0.101548	0.0227549	-0.348294	0.368165	0.127961	0	0	-0.15043	-0.0653682	-0.012776	-0.324596	-0.101925	-0.426978	0.592283	0.951007	0	0	-0.274168	-0.409924	0.399511	0.709371	0.598659	0	0
0.01	-3.09218	1.50554	-1.73991	0.467612	-0.37401	0.952914	0.533948	-0.00110011	0.113611	1.36396	-0.125495	0	0	0.0840683	0.0245455	-0.335109	0.353848	0.12968	0	0	-0.154618	-0.0588902	-0.0230336	-0.32222	-0.100783	-0.426344	0.597368	0.947316	0	0	-0.266795	-0.412513	0.396722	0.714288	0.605488	0	0
0.02	3.12934	1.5036	-1.66769	0.466102	-0.366643	0.9537	0.545509	0.000943768	0.105564	1.33932	-0.112584	0	0	0.0658475	0.0266696	-0.322441	0.339625	0.131357	0	0	-0.159462	-0.0528127	-0.0327893	-0.318651	-0.100452	-0.424802	0.602129	0.94319	0	0	-0.25982	-0.414322	0.393861	0.718773	0.612278	0	0
0.03	3.07715	1.50181	-1.60556	0.464332	-0.35849	0.95432	0.555979	0.00260867	0.0975949	1.31107	-0.101397	0	0	0.0489273	0.0278536	-0.311734	0.32685	0.134345	0	0	-0.163374	-0.0476612	-0.0418996	-0.314851	-0.0997854	-0.421489	0.60543	0.940137	0	0	-0.252471	-0.416935	0.392387	0.722365	0.616859	0	0
0.04	3.03326	1.50128	-1.55309	0.462703	-0.351076	0.954679	0.566253	0.00322305	0.0896721	1.27957	-0.0902228	0	0	0.0354739	0.0282467	-0.303652	0.318867	0.138689	0	0	-0.165759	-0.042942	-0.0496288	-0.310536	-0.099783	-0.417499	0.608533	0.935582	0	0	-0.244791	-0.419134	0.39207	0.725343	0.619625	0	0
0.05	3.01438	1.49829	-1.5263	0.461469	-0.34295	0.955218	0.571919	0.000682866	0.0805086	1.24446	-0.0794543	0	0	0.0149498	0.032287	-0.28837	0.300886	0.138787	0	0	-0.170444	-0.0402183	-0.0563957	-0.305685	-0.0989945	-0.416074	0.611377	0.941477	0	0	-0.235681	-0.421214	0.392751	0.725832	0.627588	0	0
0.06	2.99913	1.49728	-1.50375	0.460138	-0.335082	0.955395	0.579375	-0.00650852	0.0643931	1.20776	-0.0702579	0	0	-0.000590904	0.0347495	-0.27865	0.289752	0.141648	0	0	-0.172729	-0.0376921	-0.0622182	-0.301585	-0.0988699	-0.412028	0.615146	0.937609	0	0	-0.226388	-0.423395	0.395771	0.726456	0.629334	0	0
0.07	2.98092	1.49722	-1.4797	0.459	-0.327244	0.955407	0.584963	-0.00955111	0.0539975	1.16683	-0.0614635	0	0	-0.0145209	0.036417	-0.270702	0.279858	0.145005	0	0	-0.173826	-0.0352274	-0.0661643	-0.297046	-0.0985724	-0.408435	0.617782	0.93333	0	0	-0.216188	-0.425432	0.400886	0.725666	0.630389	0	0
0.08	2.96641	1.49757	-1.46053	0.458009	-0.319394	0.955285	0.588983	-0.0116126	0.0449667	1.12317	-0.0528851	0	0	-0.0279412	0.0381722	-0.264088	0.270438	0.148555	0	0	-0.174369	-0.0332262	-0.0686916	-0.292891	-0.0980456	-0.405463	0.620966	0.92846	0	0	-0.204972	-0.427244	0.407929	0.723123	0.630512	0	0
0.09	2.95371	1.49809	-1.4441	0.45711	-0.311473	0.955034	0.591353	-0.0133843	0.0357537	1.07692	-0.0454327	0	0	-0.041354	0.0400918	-0.258134	0.260709	0.151949	0	0	-0.174715	-0.0314672	-0.070076	-0.289367	-0.0973954	-0.403138	0.625009	0.923983	0	0	-0.192792	-0.428508	0.416506	0.718782	0.630595	0	0
0.1	2.94108	1.49891	-1.42846	0.456306	-0.303549	0.954648	0.592592	-0.0149801	0.0255448	1.02831	-0.039805	0	0	-0.0544729	0.0420639	-0.252136	0.250944	0.15533	0	0	-0.174696	-0.0298153	-0.0703379	-0.286524	-0.0967255	-0.401008	0.629868	0.921043	0	0	-0.180645	-0.42891	0.422964	0.714526	0.630967	0	0
0.11	2.92491	1.50003	-1.40964	0.455606	-0.295537	0.954121	0.592589	-0.0161398	0.0140392	0.977852	-0.0342282	0	0	-0.0668592	0.0435811	-0.246818	0.242419	0.159181	0	0	-0.174306	-0.0279389	-0.0701872	-0.28434	-0.0961177	-0.398538	0.635726	0.919235	0	0	-0.168867	-0.428516	0.427627	0.710209	0.631254	0	0
0.12	2.9031	1.50146	-1.38502	0.454993	-0.287425	0.953455	0.591287	-0.0170107	0.000486649	0.925965	-0.0294779	0	0	-0.0779985	0.0442754	-0.242596	0.235956	0.164117	0	0	-0.173364	-0.0257962	-0.0701581	-0.282564	-0.0954084	-0.396103	0.641634	0.917278	0	0	-0.157853	-0.428265	0.432416	0.706745	0.631855	0	0
0.13	2.87935	1.50407	-1.3585	0.454587	-0.27958	0.952564	0.590168	-0.0181069	-0.014572	0.873518	-0.0261479	0	0	-0.0862382	0.0445652	-0.240382	0.233152	0.170391	0	0	-0.17112	-0.0239321	-0.0702813	-0.280872	-0.0947039	-0.393783	0.647081	0.914424	0	0	-0.147998	-0.428202	0.436746	0.704815	0.632396	0	0
0.14	2.85303	1.50325	-1.32837	0.453883	-0.270816	0.951931	0.583285	-0.0187829	-0.0326087	0.818917	-0.0249805	0	0	-0.101602	0.0448096	-0.232113	0.22251	0.173557	0	0	-0.171914	-0.0208302	-0.0715051	-0.280713	-0.0943311	-0.389701	0.655542	0.909082	0	0	-0.137121	-0.426354	0.438359	0.698749	0.643971	0	0
0.15	2.81588	1.50404	-1.28717	0.453398	-0.262356	0.95099	0.577954	-0.0188499	-0.052149	0.765229	-0.0236981	0	0	-0.111571	0.0432432	-0.228606	0.219715	0.180245	0	0	-0.170627	-0.0175617	-0.0732255	-0.280325	-0.0937495	-0.387081	0.662531	0.906711	0	0	-0.127969	-0.425574	0.4421	0.696386	0.647555	0	0
0.16	2.79822	1.50467	-1.25894	0.453421	-0.253559	0.950017	0.570006	-0.0120818	-0.0679696	0.713566	-0.0280447	0	0	-0.12357	0.0363128	-0.231623	0.214693	0.191099	0	0	-0.169503	-0.0166689	-0.0782655	-0.281982	-0.0909267	-0.385815	0.668727	0.904043	0	0	-0.118496	-0.426515	0.445272	0.695266	0.651306	0	0
0.17	2.75799	1.50438	-1.21441	0.45301	-0.244735	0.948992	0.562074	-0.0119641	-0.0893915	0.660587	-0.0243032	0	0	-0.134846	0.0336791	-0.228433	0.211823	0.197972	0	0	-0.168915	-0.0128557	-0.0801778	-0.282121	-0.0902328	-0.385366	0.675446	0.901537	0	0	-0.111604	-0.425675	0.446817	0.695766	0.654263	0	0
0.18	2.71755	1.50392	-1.1696	0.452675	-0.235756	0.947892	0.553162	-0.0108934	-0.110367	0.608471	-0.0197903	0	0	-0.146271	0.0306877	-0.225562	0.20914	0.20504	0	0	-0.167929	-0.00915922	-0.0824319	-0.282412	-0.0895409	-0.385165	0.681758	0.899395	0	0	-0.104873	-0.424999	0.449345	0.695546	0.656247	0	0
0.19	2.67689	1.50341	-1.12471	0.452429	-0.226627	0.946678	0.544029	-0.00889106	-0.129683	0.558111	-0.0149122	0	0	-0.15795	0.0275185	-0.223095	0.206423	0.212441	0	0	-0.166607	-0.00558731	-0.0848101	-0.282836	-0.0888465	-0.385138	0.687656	0.897702	0	0	-0.0983194	-0.424414	0.452684	0.695036	0.65788	0	0
